HIERARCHY
ROOT Hips
{
	OFFSET 0.000000 0.000000 0.000000
	CHANNELS 6 Xposition Yposition Zposition Zrotation Yrotation Xrotation 
	JOINT LHipJoint
	{
		OFFSET 0.000000 0.000000 0.000000
		CHANNELS 3 Zrotation Yrotation Xrotation
		JOINT LeftUpLeg
		{
			OFFSET 1.363060 -1.794630 0.839290
			CHANNELS 3 Zrotation Yrotation Xrotation
			JOINT LeftLeg
			{
				OFFSET 2.448110 -6.726130 0.000000
				CHANNELS 3 Zrotation Yrotation Xrotation
				JOINT LeftFoot
				{
					OFFSET 2.562200 -7.039590 0.000000
					CHANNELS 3 Zrotation Yrotation Xrotation
					JOINT LeftToeBase
					{
						OFFSET 0.157640 -0.433110 2.322550
						CHANNELS 3 Zrotation Yrotation Xrotation
						End Site
						{
							OFFSET 0.000000 0.000000 0.000000
						}
					}
				}
			}
		}
	}
	JOINT RHipJoint
	{
		OFFSET 0.000000 0.000000 0.000000
		CHANNELS 3 Zrotation Yrotation Xrotation
		JOINT RightUpLeg
		{
			OFFSET -1.305520 -1.794630 0.839290
			CHANNELS 3 Zrotation Yrotation Xrotation
			JOINT RightLeg
			{
				OFFSET -2.542530 -6.985550 0.000000
				CHANNELS 3 Zrotation Yrotation Xrotation
				JOINT RightFoot
				{
					OFFSET -2.568260 -7.056230 0.000000
					CHANNELS 3 Zrotation Yrotation Xrotation
					JOINT RightToeBase
					{
						OFFSET -0.164730 -0.452590 2.363150
						CHANNELS 3 Zrotation Yrotation Xrotation
						End Site
						{
							OFFSET 0.000000 0.000000 0.000000
						}
					}
				}
			}
		}
	}
}
MOTION
Frames: 33
Frame Time: 0.008333
-2.784678 15.829269 1.513850 97.541124 -86.694330 -97.844076 -9.449654 2.304644 -1.970911 -20.469579 11.590878 -23.931884 -2.128487 2.663842 50.364818 3.436010 13.809718 -31.456686 -6.496000 0.000000 -14.501301 12.237828 1.433730 -1.125860 -12.038090 -11.869529 -28.020097 -0.651710 -4.009368 60.794916 -3.179621 -15.850303 -17.262824 2.263800 -0.000000 -29.490200
-2.990481 15.855946 1.493369 98.231591 -86.709761 -98.407566 -9.433690 2.377437 -2.009189 -20.155085 11.905035 -22.742123 -2.187771 2.586426 49.422893 3.439099 13.736743 -31.583281 -6.513999 0.000000 -15.540000 12.141643 1.636230 -0.960379 -11.359116 -11.826434 -29.289975 -0.519693 -3.860449 58.988109 -3.301611 -16.159014 -17.463952 2.336400 0.000000 -28.943601
-3.201263 15.898087 1.473662 98.559622 -86.759179 -98.652992 -9.432254 2.453775 -2.016999 -19.747894 12.229056 -21.322252 -2.255159 2.477982 48.091768 3.411161 13.557140 -31.474552 -6.427600 0.000001 -16.348300 12.015447 1.795692 -0.816759 -10.541391 -11.884018 -30.323303 -0.361691 -3.681610 56.803940 -3.398955 -16.292636 -17.609706 2.371100 -0.000000 -28.627600
-3.417260 15.955298 1.454809 98.316845 -86.850815 -98.376086 -9.453311 2.530672 -1.992406 -19.232265 12.539935 -19.676408 -2.325312 2.341371 46.399972 3.352839 13.281982 -31.132786 -6.243200 0.000001 -16.973101 11.855830 1.907081 -0.704022 -9.575684 -12.053656 -31.094673 -0.178452 -3.471500 54.237234 -3.463932 -16.227117 -17.667604 2.355500 -0.000000 -28.642700
-3.638416 16.026536 1.436751 97.265682 -86.988935 -97.345885 -9.502908 2.606408 -1.935767 -18.597320 12.819739 -17.808252 -2.391435 2.180458 44.382383 3.265570 12.928816 -30.555825 -5.969900 0.000000 -17.534000 11.662358 1.966650 -0.628993 -8.462665 -12.342011 -31.581954 0.028134 -3.229836 51.293835 -3.490566 -15.955841 -17.602709 2.279900 0.000001 -29.071000
-3.864309 16.110148 1.419014 95.126503 -87.170068 -95.291283 -9.581670 2.680499 -1.849361 -17.843276 13.053996 -15.725473 -2.445662 1.999696 42.074448 3.151780 12.520815 -29.733549 -5.618700 0.000000 -18.208400 11.439820 1.973277 -0.592851 -7.217748 -12.743387 -31.771474 0.254759 -2.957334 47.990997 -3.476631 -15.496346 -17.387992 2.142501 -0.000000 -29.946000
-4.094799 16.205271 1.401757 91.504015 -87.403610 -91.811150 -9.697974 2.749054 -1.736958 -16.949570 13.237796 -13.459033 -2.477875 1.804032 39.523476 3.011829 12.075555 -28.640932 -5.194800 -0.000000 -19.169000 11.186251 1.921054 -0.592117 -5.834090 -13.225614 -31.660378 0.497583 -2.654165 44.348363 -3.426123 -14.903076 -16.989556 1.946100 0.000000 -31.298500
-4.329337 16.310237 1.384542 85.687702 -87.682964 -86.190668 -9.850615 2.811282 -1.603578 -15.915729 13.367424 -11.048247 -2.477745 1.600372 36.784481 2.847810 11.614891 -27.247175 -4.705300 0.000000 -20.613500 10.907745 1.809545 -0.615665 -4.329093 -13.743848 -31.256553 0.751371 -2.322012 40.401067 -3.347762 -14.248271 -16.400384 1.703200 -0.000000 -33.078100
-4.563498 16.423540 1.366753 54.799785 -87.634465 -55.643707 -10.142183 2.821160 -1.296992 -14.669810 12.490076 -8.391524 -2.391103 1.418114 34.126124 2.681458 11.276258 -25.571590 -4.194700 0.000000 -22.581800 10.508215 1.660211 -0.928500 -2.725950 -15.428409 -30.257593 1.091685 -1.965276 36.052438 -3.191693 -13.381268 -15.632341 1.428799 0.000000 -35.252000
-4.804394 16.543315 1.348061 39.500879 -87.775519 -40.610778 -10.285734 2.872673 -1.143554 -13.355361 12.511761 -5.889422 -2.299225 1.229188 31.254179 2.479635 10.826969 -23.487777 -3.586900 -0.000000 -25.462700 10.265809 1.443805 -0.943716 -1.020658 -15.852302 -29.357432 1.352001 -1.587852 31.640076 -3.097348 -12.857700 -14.706098 1.142500 -0.000001 -37.563801
-5.047796 16.667851 1.327289 22.291662 -87.844010 -23.661924 -10.408711 2.964586 -0.984247 -11.961726 12.503837 -3.468974 -2.181668 1.084929 28.419895 2.266536 10.420325 -21.009198 -2.930400 0.000000 -29.240100 10.068164 1.230708 -0.922582 0.704862 -16.040684 -28.246012 1.579290 -1.167837 27.076309 -3.029853 -12.560422 -13.676684 0.854900 0.000000 -39.884401
-5.292978 16.795720 1.303624 6.730946 -87.818177 -8.329664 -10.556846 3.118581 -0.816324 -10.577394 12.466602 -1.228498 -2.050815 1.002294 25.720882 2.051629 10.083446 -18.127090 -2.236700 -0.000000 -33.843300 9.876841 1.044035 -0.854928 2.361790 -15.953630 -26.977059 1.758062 -0.700234 22.440545 -2.998460 -12.525401 -12.592638 0.566900 0.000001 -42.026700
-5.539297 16.925459 1.275974 -4.670278 -87.657091 2.893589 -10.759574 3.307158 -0.648276 -9.271488 12.393828 0.767965 -1.895771 0.972153 23.265077 1.845612 9.816490 -14.853336 -1.517800 0.000000 -39.105000 9.654630 0.868326 -0.720348 3.856480 -15.578653 -25.594577 1.892274 -0.206072 17.808368 -3.011069 -12.781730 -11.507081 0.275200 0.000000 -43.820100
-5.786198 17.055783 1.243104 -11.600620 -87.366235 9.709134 -10.967763 3.502236 -0.489973 -8.092997 12.276449 2.468558 -1.712716 0.984726 21.147402 1.659734 9.609415 -11.221425 -0.786700 0.000001 -44.778000 9.436184 0.702742 -0.495507 5.118758 -14.890288 -24.140401 1.982046 0.293493 13.236022 -3.076645 -13.354313 -10.469403 -0.026700 -0.000000 -45.197700
-6.032708 17.185484 1.204813 -15.007818 -86.999853 13.041121 -11.134427 3.701067 -0.346797 -7.068370 12.123901 3.862435 -1.514339 1.040410 19.445375 1.503964 9.450976 -7.300826 -0.060800 -0.000000 -50.416400 9.264721 0.565508 -0.210849 6.131547 -14.033562 -22.680332 2.033954 0.777525 8.860803 -3.166312 -14.090442 -9.514072 -0.335600 -0.000001 -46.091699
-6.278254 17.313464 1.161141 -15.737711 -86.609984 13.715143 -11.239783 3.906606 -0.217379 -6.227509 11.954056 4.946293 -1.315404 1.135689 18.199888 1.386216 9.328097 -3.167230 0.642299 0.000000 -55.613000 9.162305 0.469591 0.098749 6.890590 -13.151155 -21.289605 2.054386 1.227640 4.823315 -3.247150 -14.812557 -8.666924 -0.635000 0.000000 -46.591800
-6.522082 17.438739 1.112887 -14.602051 -86.224515 12.515275 -11.287889 4.116817 -0.098272 -5.568637 11.794037 5.731649 -1.124131 1.261422 17.431889 1.312136 9.224465 1.087942 1.302100 0.000000 -59.978100 9.128840 0.412828 0.389051 7.436944 -12.417415 -20.036722 2.060535 1.624492 1.258070 -3.279394 -15.311670 -7.933371 -0.898900 0.000000 -46.867800
-6.763502 17.560394 1.061270 -12.297472 -85.856525 10.119172 -11.293345 4.324838 0.012717 -5.067024 11.673872 6.233958 -0.943675 1.404497 17.140377 1.285540 9.130724 5.356027 1.898900 0.000000 -63.189900 9.152167 0.385048 0.627994 7.832577 -11.943723 -18.961703 2.070453 1.955900 -1.751700 -3.236484 -15.440731 -7.301485 -1.104599 -0.000000 -47.086599
-7.001946 17.677412 1.007842 -9.492598 -85.517195 7.189514 -11.276553 4.519822 0.111753 -4.674625 11.628366 6.470415 -0.774649 1.550677 17.303462 1.307320 9.048667 9.507140 2.417800 0.000000 -65.019600 9.213285 0.372534 0.809222 8.138970 -11.713288 -18.040719 2.092911 2.223048 -4.239087 -3.117802 -15.199979 -6.703103 -1.261400 0.000001 -47.480700
-7.236826 17.788487 0.953647 -6.523680 -85.208481 4.052986 -11.245560 4.691492 0.202726 -4.366787 11.669795 6.475186 -0.617524 1.684990 17.874514 1.375278 9.017207 13.400663 2.865200 0.000000 -65.339100 9.278868 0.384345 0.910211 8.396380 -11.632452 -17.870507 2.131292 2.308225 -4.858831 -2.787008 -14.592053 -6.898712 -1.364800 0.000000 -47.999000
-7.467671 17.892285 0.899755 -3.597774 -84.943778 0.917731 -11.205506 4.833690 0.281158 -4.125247 11.809018 6.288834 -0.475510 1.798574 18.788540 1.482886 9.099203 16.894175 3.272199 0.000000 -64.162501 9.334463 0.418357 0.932450 8.630258 -11.632212 -18.543869 2.185153 2.194352 -3.382932 -2.267262 -13.669637 -8.019642 -1.414000 0.000000 -48.597000
-7.694235 17.987599 0.847415 -0.960621 -84.755999 -1.935452 -11.167340 4.940302 0.314937 -3.908253 12.087112 5.930307 -0.355008 1.892609 19.986240 1.619243 9.342746 19.853819 3.674000 -0.000000 -61.672200 9.403964 0.441748 0.955346 8.827351 -11.563233 -18.940143 2.232663 2.097488 -2.226601 -1.856568 -12.755784 -8.726258 -1.457200 -0.000000 -49.290900
-7.916112 18.073175 0.797228 1.494550 -84.652492 -4.615311 -11.124478 5.012700 0.297617 -3.719125 12.508337 5.448262 -0.259030 1.969571 21.392078 1.773649 9.824500 22.190902 4.126600 0.000000 -58.198500 9.488830 0.454014 0.980103 8.992632 -11.432453 -19.011068 2.272143 2.029185 -1.484948 -1.568968 -11.880825 -9.034826 -1.467900 0.000000 -49.836600
-8.133078 18.148056 0.749852 3.745507 -84.641550 -7.096771 -11.080074 5.050107 0.215935 -3.530415 13.097795 4.875010 -0.186425 2.035646 22.948488 1.935169 10.575532 23.851189 4.660300 0.000000 -54.178200 9.580360 0.453838 1.025274 9.120728 -11.103900 -18.776249 2.286736 1.981189 -1.066908 -1.392988 -11.230669 -9.059557 -1.473600 0.000000 -50.170800
-8.345301 18.211608 0.705626 5.900351 -84.726583 -9.486299 -11.032108 5.056021 0.065149 -3.334286 13.860676 4.242672 -0.134633 2.097671 24.600977 2.097121 11.608950 24.822583 5.285700 -0.000000 -50.046100 9.675768 0.441009 1.094730 9.215825 -10.557421 -18.227724 2.272107 1.955278 -0.980540 -1.327433 -10.870558 -8.865053 -1.472500 0.000001 -50.173000
-8.552837 18.263362 0.664598 8.077444 -84.906128 -11.904423 -10.978337 5.033547 -0.156003 -3.124805 14.791019 3.577291 -0.099994 2.161647 26.306522 2.255770 12.900315 25.123828 5.980800 0.000000 -46.157700 9.772920 0.416842 1.188569 9.284298 -9.790466 -17.372616 2.226158 1.950440 -1.210405 -1.372275 -10.847175 -8.515943 -1.464600 0.000000 -49.785000
-8.755937 18.303028 0.626582 10.404450 -85.172922 -14.480210 -10.916230 4.985695 -0.444042 -2.896804 15.876713 2.891252 -0.079153 2.231538 28.037808 2.408408 14.385024 24.788033 6.688300 -0.000000 -42.697500 9.870749 0.382904 1.303842 9.338921 -8.827535 -16.234453 2.150630 1.964519 -1.730495 -1.530664 -11.173770 -8.062917 -1.447000 0.000000 -49.006600
-8.955150 18.330535 0.591209 13.040407 -85.510574 -17.372070 -10.841389 4.915368 -0.790030 -2.652019 17.090682 2.191625 -0.069311 2.308823 29.773345 2.553384 15.978098 23.867731 7.334100 0.000000 -39.710300 9.971384 0.340833 1.431808 9.393459 -7.731734 -14.844911 2.050956 1.994814 -2.512283 -1.808559 -11.817272 -7.536254 -1.409900 0.000001 -47.879400
-9.151068 18.345826 0.557838 16.203429 -85.891075 -20.799281 -10.746451 4.825779 -1.178358 -2.405759 18.390637 1.478595 -0.068179 2.392319 31.496016 2.689540 17.590175 22.433140 7.844000 -0.000001 -37.138700 10.082973 0.290922 1.555815 9.459857 -6.630390 -13.236810 1.937671 2.040781 -3.557519 -2.210476 -12.670928 -6.923584 -1.331200 -0.000000 -46.468700
-9.344421 18.348918 0.526051 19.944824 -86.285485 -24.806654 -10.634778 4.714426 -1.597157 -2.150646 19.738890 0.742846 -0.072577 2.478646 33.196264 2.815334 19.124532 20.576958 8.150500 -0.000000 -34.956900 10.201577 0.232827 1.674484 9.547926 -5.514292 -11.509916 1.808673 2.084723 -4.689667 -2.718322 -13.756631 -6.286512 -1.237500 0.000000 -44.964000
-9.536104 18.339855 0.494905 24.569874 -86.633104 -29.720558 -10.499625 4.588048 -1.999673 -1.939991 21.061470 -0.020522 -0.076001 2.556858 34.855864 2.930369 20.531582 18.405080 8.229400 0.000000 -33.029600 10.311621 0.200062 1.704176 9.680836 -4.538786 -10.870121 1.663722 1.913187 -3.358414 -3.021186 -14.777333 -7.003866 -1.090100 -0.000000 -43.399400
-9.726680 18.318664 0.464135 29.939721 -86.907813 -35.370784 -10.352371 4.443633 -2.387922 -1.778122 22.319029 -0.842072 -0.080047 2.625848 36.470017 3.034167 21.755245 16.032021 8.070800 0.000000 -31.334800 10.433754 0.158188 1.696240 9.828755 -3.755669 -10.331619 1.518494 1.713738 -1.813044 -3.299940 -15.804391 -7.770867 -0.938300 -0.000000 -41.963400
-9.917089 18.285472 0.433105 35.932770 -87.068400 -41.619217 -10.199965 4.288135 -2.740359 -1.711911 23.456715 -1.750061 -0.084848 2.681503 38.027967 3.127192 22.784540 13.572792 7.705101 -0.000000 -29.831300 10.569430 0.101320 1.643965 9.964365 -3.282883 -9.847285 1.385998 1.506548 -0.272515 -3.542042 -16.696845 -8.422566 -0.790200 0.000001 -40.696900
